<!DOCTYPE svg PUBLIC "-//W3C//DTD SVG 1.1//EN" "http://www.w3.org/Graphics/SVG/1.1/DTD/svg11.dtd">
<!-- Uploaded to: SVG Repo, www.svgrepo.com, Transformed by: SVG Repo Mixer Tools -->
<svg fill="#fff" width="800px" height="800px" viewBox="0 0 32 32" version="1.1" xmlns="http://www.w3.org/2000/svg" stroke="#fff">
<g id="SVGRepo_bgCarrier" stroke-width="0"/>
<g id="SVGRepo_tracerCarrier" stroke-linecap="round" stroke-linejoin="round"/>
<g id="SVGRepo_iconCarrier"> <title>cog</title> <path d="M22.912 16.12c0 3.812-3.091 6.903-6.903 6.903s-6.903-3.091-6.903-6.903 3.091-6.903 6.903-6.903 6.903 3.091 6.903 6.903zM26.643 17.605c0.231-1.613 2.040-2.73 4.282-2.877-0.147-1.619-0.548-3.162-1.18-4.61-2.035 0.943-4.159 0.819-5.134-0.481-0.979-1.307-0.454-3.36 1.040-5.054-1.218-1.020-2.635-1.837-4.156-2.435-0.769 2.111-2.349 3.534-3.962 3.303s-2.73-2.040-2.877-4.282v0c-1.628 0.148-3.217 0.534-4.672 1.172 0.959 2.044 0.888 4.163-0.418 5.143-1.3 0.975-3.373 0.498-5.063-0.978-1.014 1.214-1.83 2.58-2.426 4.094 2.111 0.77 3.534 2.35 3.303 3.962s-2.040 2.73-4.282 2.877c0.146 1.61 0.555 3.169 1.18 4.61 1.111-0.511 2.234-0.693 3.189-0.559 0.813 0.117 1.494 0.438 1.945 1.040 0.987 1.316 0.472 3.415-1.049 5.116 1.218 1.020 2.635 1.836 4.156 2.434 0.769-2.111 2.349-3.534 3.962-3.303s2.73 2.040 2.877 4.282c1.628-0.148 3.217-0.534 4.672-1.172-0.984-2.059-0.889-4.218 0.427-5.205 0.601-0.451 1.408-0.562 2.221-0.444 0.943 0.135 1.945 0.64 2.842 1.422 1.004-1.207 1.834-2.591 2.426-4.094-2.111-0.77-3.534-2.349-3.303-3.962zM16.007 24.541c-4.653 0-8.426-3.772-8.426-8.426s3.772-8.426 8.426-8.426 8.426 3.772 8.426 8.426-3.772 8.426-8.426 8.426z"/> </g>
</svg>